<?xml version="1.0" standalone="no"?>
<!DOCTYPE svg PUBLIC "-//W3C//DTD SVG 20010904//EN"
 "http://www.w3.org/TR/2001/REC-SVG-20010904/DTD/svg10.dtd">
<svg version="1.0" xmlns="http://www.w3.org/2000/svg"
 width="128.000000pt" height="128.000000pt" viewBox="0 0 128.000000 128.000000"
 preserveAspectRatio="xMidYMid meet">
<metadata>
Created by potrace 1.13, written by Peter Selinger 2001-2015
</metadata>
<g transform="translate(0.000000,128.000000) scale(0.100000,-0.100000)"
fill="#000000" stroke="none">
<path d="M95 1266 c-101 -44 -125 -178 -46 -257 43 -44 95 -57 156 -41 l40 11
127 -127 c107 -106 127 -131 122 -149 -6 -22 -11 -23 -95 -23 -71 0 -89 3 -89
15 0 8 -17 32 -38 54 -64 67 -157 68 -223 2 -65 -65 -65 -157 0 -222 66 -66
159 -65 223 2 21 22 38 46 38 54 0 12 18 15 89 15 84 0 89 -1 95 -22 5 -19
-15 -44 -122 -150 l-127 -127 -40 11 c-61 16 -113 3 -156 -41 -65 -65 -65
-157 0 -222 65 -65 157 -65 222 0 44 43 57 95 41 156 l-11 40 127 127 c106
107 131 127 150 122 21 -6 22 -11 22 -95 0 -71 -3 -89 -15 -89 -8 0 -32 -17
-54 -38 -67 -64 -68 -157 -2 -223 65 -65 157 -65 222 0 66 66 65 159 -2 223
-22 21 -46 38 -54 38 -12 0 -15 18 -15 89 0 84 1 89 23 95 18 5 43 -15 149
-122 l127 -127 -11 -40 c-16 -61 -3 -113 41 -156 65 -65 157 -65 222 0 65 65
65 157 0 222 -43 44 -95 57 -156 41 l-40 -11 -127 127 c-107 106 -127 131
-122 150 6 21 11 22 95 22 71 0 89 -3 89 -15 0 -8 17 -32 38 -54 64 -67 157
-68 223 -2 113 112 12 296 -146 267 -42 -8 -103 -58 -111 -92 -6 -23 -10 -24
-94 -24 -82 0 -88 1 -94 23 -5 18 15 43 122 149 l127 127 40 -11 c61 -16 113
-3 156 41 65 65 65 157 0 222 -65 65 -157 65 -222 0 -44 -43 -57 -95 -41 -156
l11 -40 -127 -127 c-106 -107 -131 -127 -149 -122 -22 6 -23 11 -23 95 0 71 3
89 15 89 8 0 32 17 54 38 67 64 68 157 2 223 -65 65 -157 65 -222 0 -66 -66
-65 -159 2 -223 22 -21 46 -38 54 -38 12 0 15 -18 15 -89 0 -84 -1 -89 -22
-95 -19 -5 -44 15 -150 122 l-127 127 11 40 c36 132 -93 245 -217 191z m120
-91 c50 -49 15 -135 -55 -135 -41 0 -80 39 -80 80 0 70 86 105 135 55z m480 0
c16 -15 25 -36 25 -55 0 -19 -9 -40 -25 -55 -49 -50 -135 -15 -135 55 0 41 39
80 80 80 19 0 40 -9 55 -25z m480 0 c16 -15 25 -36 25 -55 0 -19 -9 -40 -25
-55 -15 -16 -36 -25 -55 -25 -19 0 -40 9 -55 25 -16 15 -25 36 -25 55 0 19 9
40 25 55 15 16 36 25 55 25 19 0 40 -9 55 -25z m-960 -480 c50 -49 15 -135
-55 -135 -41 0 -80 39 -80 80 0 70 86 105 135 55z m480 0 c50 -49 15 -135 -55
-135 -19 0 -40 9 -55 25 -50 49 -15 135 55 135 19 0 40 -9 55 -25z m480 0 c50
-49 15 -135 -55 -135 -41 0 -80 39 -80 80 0 19 9 40 25 55 15 16 36 25 55 25
19 0 40 -9 55 -25z m-960 -480 c50 -49 15 -135 -55 -135 -19 0 -40 9 -55 25
-50 49 -15 135 55 135 19 0 40 -9 55 -25z m480 0 c50 -49 15 -135 -55 -135
-41 0 -80 39 -80 80 0 41 39 80 80 80 19 0 40 -9 55 -25z m480 0 c50 -49 15
-135 -55 -135 -41 0 -80 39 -80 80 0 41 39 80 80 80 19 0 40 -9 55 -25z"/>
</g>
</svg>
