<?xml version="1.0" standalone="no"?>
<!DOCTYPE svg PUBLIC "-//W3C//DTD SVG 20010904//EN"
 "http://www.w3.org/TR/2001/REC-SVG-20010904/DTD/svg10.dtd">
<svg version="1.0" xmlns="http://www.w3.org/2000/svg"
 width="626.000000pt" height="626.000000pt" viewBox="0 0 626.000000 626.000000"
 preserveAspectRatio="xMidYMid meet">
<metadata>
Created by potrace 1.13, written by Peter Selinger 2001-2015
</metadata>
<g transform="translate(0.000000,626.000000) scale(0.100000,-0.100000)"
fill="#000000" stroke="none">
<path d="M2440 5825 l0 -435 -27 -11 c-16 -6 -68 -26 -118 -44 -49 -18 -130
-52 -179 -75 l-89 -42 -308 308 -309 309 -480 -480 -480 -480 302 -302 302
-302 -51 -103 c-46 -93 -105 -234 -130 -313 l-10 -30 -431 -3 -432 -2 0 -675
0 -675 428 -2 427 -3 26 -75 c55 -157 69 -191 120 -294 l53 -107 -302 -302
-302 -302 480 -480 480 -480 308 308 307 307 120 -54 c66 -30 166 -69 222 -88
l103 -33 0 -432 0 -433 675 0 675 0 0 440 0 439 28 14 c15 8 52 22 82 32 30 9
108 42 174 73 l118 55 314 -314 314 -314 480 480 480 480 -312 312 -312 312
43 93 c24 51 61 140 83 198 22 58 44 113 49 123 9 16 41 17 454 17 l445 0 0
675 0 675 -443 0 -443 0 -27 79 c-40 118 -63 176 -114 284 l-47 98 312 312
312 312 -480 480 -480 480 -314 -314 -313 -313 -134 60 c-74 33 -171 72 -216
88 l-83 27 0 439 0 438 -675 0 -675 0 0 -435z m930 -1316 c192 -35 392 -118
538 -223 24 -17 56 -39 71 -48 42 -28 178 -165 235 -237 144 -182 242 -400
283 -625 22 -124 22 -370 -1 -496 -29 -164 -111 -372 -198 -506 -78 -119 -237
-295 -314 -348 -17 -11 -60 -41 -94 -65 -334 -233 -804 -297 -1213 -164 -249
80 -452 217 -629 423 -225 262 -337 566 -338 909 0 317 107 628 298 866 338
420 840 609 1362 514z"/>
</g>
</svg>
