<?xml version="1.0" standalone="no"?>
<!DOCTYPE svg PUBLIC "-//W3C//DTD SVG 20010904//EN"
 "http://www.w3.org/TR/2001/REC-SVG-20010904/DTD/svg10.dtd">
<svg version="1.0" xmlns="http://www.w3.org/2000/svg"
 width="275.000000pt" height="175.000000pt" viewBox="0 0 275.000000 175.000000"
 preserveAspectRatio="xMidYMid meet">
<metadata>
Created by potrace 1.13, written by Peter Selinger 2001-2015
</metadata>
<g transform="translate(0.000000,175.000000) scale(0.100000,-0.100000)"
fill="#000000" stroke="none">
<path d="M400 870 l0 -750 975 0 975 0 0 750 0 750 -975 0 -975 0 0 -750z
m1900 0 l0 -700 -925 0 -925 0 0 700 0 700 925 0 925 0 0 -700z"/>
<path d="M820 1471 c-83 -26 -150 -82 -191 -161 -35 -67 -34 -186 3 -255 31
-60 77 -104 138 -136 64 -34 186 -34 250 0 135 70 197 212 156 356 -23 78
-106 163 -185 188 -55 18 -128 21 -171 8z m70 -161 l0 -130 131 0 131 0 -7
-37 c-14 -77 -68 -147 -140 -186 -56 -30 -164 -30 -220 0 -92 49 -139 127
-139 228 0 118 69 211 184 246 61 18 60 21 60 -121z"/>
<path d="M1512 1348 c-7 -7 -12 -19 -12 -27 0 -9 -16 -61 -36 -116 -32 -91
-41 -106 -100 -166 -53 -53 -63 -68 -51 -77 10 -9 28 4 84 61 64 65 74 81 103
165 18 51 37 95 41 98 4 2 55 -34 113 -80 l105 -85 40 64 c23 36 45 65 50 65
23 0 53 -45 107 -162 32 -71 62 -128 65 -128 12 0 129 163 123 171 -12 20 -34
6 -74 -47 l-42 -56 -49 104 c-63 133 -57 125 -106 154 l-42 25 -41 -65 -41
-66 -82 66 c-45 37 -91 74 -102 83 -34 28 -41 31 -53 19z"/>
<path d="M1580 510 l0 -240 75 0 75 0 0 240 0 240 -75 0 -75 0 0 -240z"/>
<path d="M810 495 l0 -225 75 0 75 0 0 225 0 225 -75 0 -75 0 0 -225z"/>
<path d="M1010 450 l0 -180 75 0 75 0 0 180 0 180 -75 0 -75 0 0 -180z"/>
<path d="M1390 450 l0 -180 75 0 75 0 0 180 0 180 -75 0 -75 0 0 -180z"/>
<path d="M1960 450 l0 -180 75 0 75 0 0 180 0 180 -75 0 -75 0 0 -180z"/>
<path d="M620 415 l0 -145 75 0 75 0 0 145 0 145 -75 0 -75 0 0 -145z"/>
<path d="M1770 395 l0 -125 75 0 75 0 0 125 0 125 -75 0 -75 0 0 -125z"/>
<path d="M1200 345 l0 -75 75 0 75 0 0 75 0 75 -75 0 -75 0 0 -75z"/>
</g>
</svg>
