<?xml version="1.0" standalone="no"?>
<!DOCTYPE svg PUBLIC "-//W3C//DTD SVG 20010904//EN"
 "http://www.w3.org/TR/2001/REC-SVG-20010904/DTD/svg10.dtd">
<svg version="1.0" xmlns="http://www.w3.org/2000/svg"
 width="256.000000pt" height="256.000000pt" viewBox="0 0 256.000000 256.000000"
 preserveAspectRatio="xMidYMid meet">
<metadata>
Created by potrace 1.13, written by Peter Selinger 2001-2015
</metadata>
<g transform="translate(0.000000,256.000000) scale(0.100000,-0.100000)"
fill="#000000" stroke="none">
<path d="M159 2401 l-29 -29 0 -737 c0 -486 4 -743 10 -756 26 -48 40 -49 510
-49 l440 0 0 -300 c0 -333 2 -343 63 -380 31 -19 54 -20 607 -20 553 0 576 1
607 20 67 40 64 -2 61 854 l-3 775 -30 31 c-41 43 -83 51 -257 48 l-153 -3 -3
-62 -3 -63 141 0 c78 0 150 -5 161 -10 19 -10 19 -29 19 -723 0 -541 -3 -716
-12 -725 -17 -17 -1039 -17 -1056 0 -9 9 -12 184 -12 725 0 694 0 713 19 723
11 5 83 10 161 10 l141 0 -3 63 c-3 62 -3 62 -35 65 l-33 3 0 160 0 160 -157
-3 -158 -3 -3 -169 -2 -169 -30 -34 -30 -33 -2 202 -3 203 -157 3 -158 3 0
-546 0 -545 161 0 160 0 -3 -32 -3 -33 -382 -3 -383 -2 0 610 0 610 610 0 610
0 0 -132 0 -133 19 40 c23 52 80 101 131 115 l40 11 0 105 c0 111 -12 154 -49
174 -13 6 -270 10 -756 10 l-737 0 -29 -29z"/>
<path d="M387 2173 c-4 -3 -7 -249 -7 -545 l0 -538 160 0 160 0 0 545 0 545
-153 0 c-85 0 -157 -3 -160 -7z"/>
<path d="M1695 2036 c-40 -18 -73 -56 -85 -97 -6 -19 -10 -89 -10 -156 l0
-123 -100 0 c-93 0 -103 -2 -125 -24 -26 -26 -38 -73 -33 -127 l3 -34 415 0
415 0 3 34 c5 54 -7 101 -33 127 -22 22 -32 24 -125 24 l-100 0 0 124 c0 67
-5 138 -11 157 -30 89 -129 133 -214 95z"/>
<path d="M1410 1250 l0 -30 350 0 350 0 0 30 0 30 -350 0 -350 0 0 -30z"/>
<path d="M1410 990 l0 -30 350 0 350 0 0 30 0 30 -350 0 -350 0 0 -30z"/>
<path d="M1410 735 l0 -35 350 0 350 0 0 35 0 35 -350 0 -350 0 0 -35z"/>
<path d="M1410 480 l0 -30 350 0 350 0 0 30 0 30 -350 0 -350 0 0 -30z"/>
</g>
</svg>
