<?xml version="1.0" standalone="no"?>
<!DOCTYPE svg PUBLIC "-//W3C//DTD SVG 20010904//EN"
 "http://www.w3.org/TR/2001/REC-SVG-20010904/DTD/svg10.dtd">
<svg version="1.0" xmlns="http://www.w3.org/2000/svg"
 width="189.000000pt" height="267.000000pt" viewBox="0 0 189.000000 267.000000"
 preserveAspectRatio="xMidYMid meet">
<metadata>
Created by potrace 1.13, written by Peter Selinger 2001-2015
</metadata>
<g transform="translate(0.000000,267.000000) scale(0.100000,-0.100000)"
fill="#000000" stroke="none">
<path d="M891 2580 c-42 -10 -76 -35 -115 -84 -29 -35 -31 -44 -31 -115 0 -68
3 -83 28 -120 33 -50 110 -91 172 -91 65 0 140 41 175 96 26 41 30 58 30 114
0 57 -4 73 -30 111 -49 74 -143 111 -229 89z"/>
<path d="M685 2122 c-61 -9 -135 -51 -171 -97 -51 -68 -53 -82 -54 -476 0
-350 1 -367 20 -391 11 -14 32 -28 47 -31 39 -7 91 17 103 48 6 15 10 152 10
326 0 290 1 299 20 299 19 0 19 -15 22 -824 l3 -825 29 -30 c35 -36 81 -47
129 -32 76 25 71 -4 77 545 l5 491 23 3 22 3 0 -489 c0 -475 1 -490 20 -515
39 -49 126 -58 179 -18 16 13 26 33 32 67 4 27 8 403 8 837 1 780 1 787 21
787 20 0 20 -7 20 -309 0 -310 0 -310 23 -337 33 -39 101 -38 134 1 l24 27 -3
377 c-3 364 -4 377 -25 416 -28 53 -88 110 -138 131 -34 15 -78 18 -285 20
-135 1 -267 -1 -295 -4z"/>
</g>
</svg>
