<?xml version="1.0" standalone="no"?>
<!DOCTYPE svg PUBLIC "-//W3C//DTD SVG 20010904//EN"
 "http://www.w3.org/TR/2001/REC-SVG-20010904/DTD/svg10.dtd">
<svg version="1.0" xmlns="http://www.w3.org/2000/svg"
 width="1612.000000pt" height="200.000000pt" viewBox="0 0 1612.000000 200.000000"
 preserveAspectRatio="xMidYMid meet">
<metadata>
Created by potrace 1.13, written by Peter Selinger 2001-2015
</metadata>
<g transform="translate(0.000000,200.000000) scale(0.100000,-0.100000)"
fill="#000000" stroke="none">
<path d="M2765 1616 c-250 -58 -412 -227 -461 -484 -30 -157 -10 -303 61 -447
70 -144 190 -250 334 -296 92 -30 280 -37 375 -15 249 59 421 262 456 539 25
204 -51 432 -185 556 -112 103 -236 151 -410 157 -71 2 -131 -1 -170 -10z
m288 -61 c154 -32 289 -138 357 -280 47 -98 60 -159 60 -280 0 -123 -13 -182
-61 -281 -68 -139 -190 -239 -339 -279 -73 -19 -240 -19 -315 0 -181 48 -321
190 -381 390 -27 90 -26 268 4 360 40 129 115 231 215 296 54 35 148 72 207
82 58 10 190 6 253 -8z"/>
<path d="M3820 989 l0 -620 28 3 27 3 3 223 2 222 273 0 c302 0 336 5 420 61
59 39 109 103 139 177 32 80 32 232 -1 314 -29 74 -79 138 -138 177 -86 57
-115 61 -450 61 l-303 0 0 -621z m675 533 c70 -33 118 -84 154 -162 21 -46 25
-70 25 -145 0 -75 -4 -99 -25 -145 -34 -74 -81 -125 -143 -158 l-51 -27 -287
-3 -288 -3 0 335 0 336 278 0 277 0 60 -28z"/>
<path d="M4990 990 l0 -620 430 0 430 0 0 30 0 30 -400 0 -400 0 0 270 0 270
370 0 370 0 0 30 0 30 -370 0 -370 0 0 260 0 260 388 2 387 3 3 28 3 27 -420
0 -421 0 0 -620z"/>
<path d="M6140 993 l0 -623 30 0 30 0 2 540 3 540 420 -516 c230 -284 427
-526 437 -538 17 -20 17 6 18 597 l0 617 -31 0 -30 0 3 -535 c2 -294 1 -535
-2 -534 -3 0 -185 223 -405 495 -220 272 -417 514 -437 537 l-37 42 -1 -622z"/>
<path d="M950 1285 c-42 -43 -45 -44 -114 -47 l-71 -3 -3 -70 c-3 -68 -4 -71
-50 -117 l-46 -48 46 -47 c46 -47 47 -50 50 -118 l3 -70 70 -3 c68 -3 71 -4
118 -50 l47 -46 48 46 c46 46 49 47 117 50 l70 3 3 70 c3 68 4 71 50 118 l46
47 -46 48 c-46 46 -47 49 -50 117 l-3 70 -71 3 c-69 3 -72 4 -114 47 -24 25
-47 45 -50 45 -3 0 -26 -20 -50 -45z"/>
</g>
</svg>
