<?xml version="1.0" standalone="no"?>
<!DOCTYPE svg PUBLIC "-//W3C//DTD SVG 20010904//EN"
 "http://www.w3.org/TR/2001/REC-SVG-20010904/DTD/svg10.dtd">
<svg version="1.0" xmlns="http://www.w3.org/2000/svg"
 width="256.000000pt" height="256.000000pt" viewBox="0 0 256.000000 256.000000"
 preserveAspectRatio="xMidYMid meet">
<metadata>
Created by potrace 1.13, written by Peter Selinger 2001-2015
</metadata>
<g transform="translate(0.000000,256.000000) scale(0.100000,-0.100000)"
fill="#000000" stroke="none">
<path d="M463 2316 c-147 -36 -307 -163 -371 -296 -34 -69 -62 -179 -62 -245
0 -137 62 -278 170 -385 139 -140 321 -197 495 -156 33 8 61 14 62 13 4 -5
165 -363 175 -390 9 -25 6 -32 -37 -78 -68 -73 -90 -127 -90 -224 0 -67 4 -89
28 -136 80 -163 267 -235 425 -164 177 79 250 279 164 445 l-32 63 173 181
c95 99 202 211 238 248 l64 68 72 -37 c137 -68 292 -54 420 41 70 51 136 144
159 224 26 89 16 203 -25 287 -43 87 -121 164 -208 207 -63 30 -75 33 -168 33
-96 0 -104 -2 -176 -37 -93 -46 -168 -122 -211 -214 -26 -55 -34 -65 -52 -61
-11 3 -137 18 -278 33 l-258 29 0 40 c0 112 -70 264 -166 359 -134 135 -335
194 -511 152z m265 -114 c180 -56 301 -222 302 -412 0 -196 -86 -335 -260
-419 -72 -35 -79 -36 -185 -35 -127 0 -186 18 -270 82 -104 79 -163 189 -172
322 -15 215 101 392 302 462 69 24 205 24 283 0z m1540 -327 c102 -55 156
-151 156 -276 0 -128 -60 -225 -174 -284 -50 -26 -183 -32 -246 -11 -62 21
-133 86 -170 156 -26 49 -29 65 -29 145 1 111 23 163 96 229 68 61 114 76 224
73 78 -2 97 -7 143 -32z m-831 -251 l251 -27 7 -54 c4 -32 23 -87 47 -134 l40
-80 -64 -67 c-432 -455 -409 -432 -432 -417 -39 25 -135 47 -192 43 l-56 -3
-88 195 c-49 107 -89 200 -89 206 -1 6 9 15 22 21 77 35 191 181 228 292 20
58 23 62 48 57 14 -3 139 -17 278 -32z m-245 -856 c49 -14 126 -81 144 -125
20 -46 17 -140 -5 -188 -76 -164 -328 -165 -402 -1 -23 51 -25 143 -4 194 43
101 158 153 267 120z"/>
</g>
</svg>
